<svg xmlns="http://www.w3.org/2000/svg" xmlns:xlink="http://www.w3.org/1999/xlink" version="1.1" x="0px" y="0px" viewBox="0 0 100 125" enable-background="new 0 0 100 100" xml:space="preserve"><g><path d="M50,3.875C24.566,3.875,3.875,24.566,3.875,50S24.566,96.125,50,96.125S96.125,75.434,96.125,50S75.434,3.875,50,3.875z    M50,93.875C25.807,93.875,6.125,74.192,6.125,50C6.125,25.807,25.807,6.125,50,6.125c24.192,0,43.875,19.682,43.875,43.875   C93.875,74.192,74.192,93.875,50,93.875z"/><path d="M66.436,22.503c-0.422-0.422-0.994-0.659-1.591-0.659c-0.598,0-1.17,0.237-1.592,0.66l-6.581,6.585   c-0.01,0.01-0.022,0.017-0.032,0.026L27.882,57.873c-0.041,0.041-0.072,0.089-0.109,0.133c-0.036,0.042-0.072,0.084-0.105,0.129   c-0.056,0.076-0.105,0.156-0.151,0.239c-0.025,0.044-0.05,0.088-0.072,0.135c-0.044,0.093-0.079,0.188-0.109,0.287   c-0.009,0.03-0.024,0.057-0.033,0.087l-4.048,15.102c-0.208,0.777,0.014,1.605,0.582,2.174c0.428,0.428,1.002,0.659,1.591,0.659   c0.194,0,0.39-0.025,0.582-0.076l15.104-4.045c0.051-0.014,0.096-0.038,0.146-0.056c0.063-0.021,0.125-0.043,0.186-0.07   c0.079-0.035,0.153-0.076,0.227-0.119c0.052-0.03,0.103-0.062,0.152-0.097c0.077-0.054,0.147-0.113,0.216-0.176   c0.026-0.024,0.057-0.042,0.082-0.067l28.718-28.719c0.013-0.012,0.027-0.021,0.04-0.033l6.616-6.616   c0.422-0.422,0.659-0.994,0.659-1.591s-0.237-1.169-0.659-1.591L66.436,22.503z M58.228,33.891l7.877,7.875L40.532,67.339   l-7.877-7.875L58.228,33.891z M30.64,63.812l5.546,5.544l-7.576,2.029L30.64,63.812z M69.291,38.586l-7.876-7.877l3.431-3.433   l7.878,7.877L69.291,38.586z"/></g><g display="none"><circle display="inline" fill="none" cx="50" cy="50" r="45"/><g display="inline"><polyline fill="none" points="40.532,70.522 25.428,74.567 25.428,74.567 29.476,59.466   "/><rect x="41.562" y="30.28" transform="matrix(-0.707 -0.7072 0.7072 -0.707 48.504 121.3201)" fill="none" width="15.638" height="40.666"/><rect x="59.248" y="28.253" transform="matrix(0.7072 0.707 -0.707 0.7072 42.9204 -37.7751)" fill="none" width="15.639" height="9.357"/></g></g><text x="0" y="115" fill="#000000" font-size="5px" font-weight="bold" font-family="'Helvetica Neue', Helvetica, Arial-Unicode, Arial, Sans-serif">Created by Michele Mauri</text><text x="0" y="120" fill="#000000" font-size="5px" font-weight="bold" font-family="'Helvetica Neue', Helvetica, Arial-Unicode, Arial, Sans-serif">from the Noun Project</text></svg>